<?xml version="1.0" encoding="utf-8"?>
<!-- Generator: Adobe Illustrator 16.0.0, SVG Export Plug-In . SVG Version: 6.00 Build 0)  -->
<!DOCTYPE svg PUBLIC "-//W3C//DTD SVG 1.1//EN" "http://www.w3.org/Graphics/SVG/1.1/DTD/svg11.dtd">
<svg version="1.1" id="Layer_1" xmlns="http://www.w3.org/2000/svg" xmlns:xlink="http://www.w3.org/1999/xlink" x="0px" y="0px"
	 width="333px" height="351px" viewBox="0 0 333 351" enable-background="new 0 0 333 351" xml:space="preserve">
<ellipse fill="#A9CED3" cx="168.667" cy="321.004" rx="155.667" ry="28.005"/>
<circle fill="#FFFFFF" stroke="#4D4D4D" stroke-width="10" stroke-miterlimit="10" cx="167.125" cy="171.5" r="160"/>
<path fill="none" stroke="#4F4F4F" stroke-width="10" stroke-linecap="round" stroke-linejoin="round" stroke-miterlimit="10" d="
	M239.125,240.125c0,15.119-32.235,27.375-72,27.375s-72-12.256-72-27.375"/>
<path fill="#4F4F4F" d="M97.563,126.938c-5.504,0-10.498,2.135-14.243,5.6l-0.007-0.007c-0.034,0.035-0.065,0.07-0.101,0.104
	c-0.668,0.627-1.308,1.283-1.89,1.992c-8.023,8.825-11.715,18.2-8.263,21.651c1.243,1.244,3.267,1.542,5.746,1.063
	c3.452,6.871,10.544,11.596,18.757,11.596c11.599,0,21-9.402,21-21S109.161,126.938,97.563,126.938z"/>
<path fill="#4F4F4F" d="M236.766,126.938c5.504,0,10.498,2.135,14.243,5.6l0.007-0.007c0.035,0.035,0.066,0.07,0.101,0.104
	c0.668,0.627,1.308,1.283,1.89,1.992c8.023,8.825,11.715,18.2,8.264,21.651c-1.244,1.244-3.268,1.542-5.746,1.063
	c-3.452,6.871-10.545,11.596-18.758,11.596c-11.598,0-21-9.402-21-21S225.168,126.938,236.766,126.938z"/>
</svg>
